PathFileType	4	(X/Y/Z)	E:\Qualisys_Data\Carbon_Farble_Plate\Data\Amateur_Runner\S14\T2\S14T2V13_c3d.trc
DataRate	CameraRate	NumFrames	NumMarkers	Units	OrigDataRate	OrigDataStartFrame	OrigNumFrames
200.000000	200.000000	4	39	mm	200.000000	119	319
Frame#	Time	LSHO			RSHO			LICST			RICST			LASIS			LHEEL			RASIS			LTROC			RTROC			SACR			LTH1			LSK4			LTH2			LTH3			RHM5			LSK2			LTH4			RTH1			LTOE			RTH2			RTH3			RTH4			LLEP			RLEP			LSK1			LSK3			RSK1			LHM5			RSK2			LFT1			RSK3			RSK4			LLME			RLME			RTOE			RHEEL			RFT1			RFT2			LFT2			
		X1	Y1	Z1	X2	Y2	Z2	X3	Y3	Z3	X4	Y4	Z4	X5	Y5	Z5	X6	Y6	Z6	X7	Y7	Z7	X8	Y8	Z8	X9	Y9	Z9	X10	Y10	Z10	X11	Y11	Z11	X12	Y12	Z12	X13	Y13	Z13	X14	Y14	Z14	X15	Y15	Z15	X16	Y16	Z16	X17	Y17	Z17	X18	Y18	Z18	X19	Y19	Z19	X20	Y20	Z20	X21	Y21	Z21	X22	Y22	Z22	X23	Y23	Z23	X24	Y24	Z24	X25	Y25	Z25	X26	Y26	Z26	X27	Y27	Z27	X28	Y28	Z28	X29	Y29	Z29	X30	Y30	Z30	X31	Y31	Z31	X32	Y32	Z32	X33	Y33	Z33	X34	Y34	Z34	X35	Y35	Z35	X36	Y36	Z36	X37	Y37	Z37	X38	Y38	Z38	X39	Y39	Z39	

120	0.595	-470.1127014160156	1380.039428710938	-551.047119140625	-473.1873474121094	1398.105712890625	-242.2433624267578	-553.5001220703125	952.5816650390624	-505.9877319335938	-511.0083923339844	949.0070190429688	-227.6853942871094	-507.9479064941406	903.7985229492188	-487.0600280761719	-869.8502197265625	116.1433563232422	-355.0602416992188	-489.2918395996094	906.5143432617188	-249.336181640625	-646.4462280273438	838.5897827148438	-512.616943359375	-620.2960205078125	826.9642944335938	-188.5895690917969	-675.899169921875	944.2329711914062	-389.5023193359375	-566.4329833984375	607.695556640625	-509.9228820800781	-734.3720703125	291.0648193359375	-451.6093139648438	-641.0736694335938	606.5497436523438	-490.116943359375	-554.0796508789062	512.15380859375	-481.8405151367188	-750.816162109375	162.9152374267578	-205.0609588623047	-680.31201171875	370.959716796875	-473.8638305664062	-631.6248779296875	511.2686157226562	-465.894287109375	-419.7983093261719	653.546142578125	-191.10986328125	-625.0629272460938	64.2347412109375	-406.1012268066406	-494.5098876953125	628.6928100585938	-179.6260528564453	-386.3369445800781	560.7946166992188	-213.1461944580078	-464.4736022949219	532.6947021484375	-195.2936096191406	-596.577392578125	439.0191345214844	-471.0998229980469	-425.9635925292969	479.7561340332031	-199.125732421875	-610.4581298828125	327.9042053222656	-463.4310607910156	-667.9306030273438	245.9054565429688	-442.9631652832031	-498.0052795410156	392.2537231445312	-204.47216796875	-697.9230346679688	61.28421401977539	-464.8218078613281	-545.0469970703125	464.22509765625	-200.6294403076172	-863.1322631835938	84.08333587646484	-336.4749755859375	-587.9518432617188	343.2090454101562	-218.9278106689453	-625.1299438476562	413.0814208984375	-214.9035186767578	-804.1385498046875	131.4388427734375	-423.8964233398438	-755.9549560546875	301.0779418945312	-235.4427947998047	-704.2342529296875	97.23097229003906	-265.7028198242188	-805.468994140625	337.5653381347656	-290.6374816894531	-826.3263549804688	309.33642578125	-319.3762817382812	-828.5704345703125	324.6868286132812	-264.6307067871094	-877.4462890625	86.45819091796875	-389.1803588867188
121	0.6	-451.447509765625	1384.221435546875	-550.0167846679688	-459.4100952148438	1401.80908203125	-241.9603424072266	-536.54150390625	955.3244018554688	-506.6051635742188	-492.9400634765625	953.6622314453124	-229.0810852050781	-491.2670288085938	906.0952758789062	-487.1631164550781	-867.6732177734375	120.4851608276367	-355.6682739257812	-472.9801940917969	909.9366455078124	-249.9315948486328	-630.073974609375	841.6624755859375	-513.19091796875	-603.0501708984375	830.92578125	-188.4171600341797	-656.8424072265625	945.9482421875	-388.2196655273438	-557.2867431640625	609.870849609375	-509.3113708496094	-731.665771484375	294.9730224609375	-451.6623840332031	-631.7255859375	611.0059814453125	-489.94921875	-547.5325927734375	514.099365234375	-481.5106201171875	-717.1956176757812	158.3904113769531	-204.3218688964844	-677.1072387695312	374.4463195800781	-473.7586059570312	-625.2316284179688	515.8482666015625	-465.7067565917969	-401.095458984375	659.626708984375	-191.6653747558594	-624.7405395507812	64.36763000488281	-406.1600952148438	-474.6556091308594	633.852783203125	-179.8834838867188	-365.6510009765625	567.5931396484375	-214.0019073486328	-443.3403015136719	538.3099365234375	-195.9584503173828	-592.5433349609375	442.2515563964844	-470.9661560058594	-404.1380310058594	485.88037109375	-200.1672973632812	-607.5210571289062	330.9454956054688	-463.4836120605469	-665.8916625976562	249.4505462646484	-443.0354614257812	-473.8914489746094	396.2962646484375	-204.7722778320312	-698.1841430664062	61.3729248046875	-464.9398803710938	-523.088623046875	466.5102844238281	-202.3857879638672	-861.9839477539062	89.68828582763672	-336.2019958496094	-562.2264404296875	343.6421508789062	-219.5407104492188	-601.3851318359375	412.5640869140625	-215.9014434814453	-802.1193237304688	134.9410858154297	-423.9087219238281	-728.7556762695312	295.3739013671875	-236.9070281982422	-667.349853515625	95.08988189697266	-263.7636413574219	-780.1851196289062	330.1549987792969	-291.5079345703125	-799.2703247070312	299.641845703125	-320.2332763671875	-802.1326904296875	315.6974792480469	-265.8573608398438	-873.6721801757812	91.43128204345705	-390.2311706542969
122	0.605	-433.0809020996094	1388.974609375	-548.9099731445312	-445.8058471679688	1405.847534179688	-241.4722747802734	-519.375	958.4693603515624	-506.5965576171875	-477.7740173339844	957.0308227539062	-228.9350433349609	-474.3607482910156	908.9873046875	-487.3788452148438	-865.9503784179688	125.6729507446289	-356.5951538085938	-455.7143859863281	914.0328979492188	-250.4028778076172	-613.3196411132812	845.0863037109375	-513.6243286132812	-585.3960571289062	835.7340087890625	-188.0648498535156	-639.1272583007812	949.0780029296876	-387.7490234375	-547.5335083007812	612.7894287109375	-509.2828979492188	-729.3847045898438	299.7037048339844	-451.1460266113281	-622.3302612304688	616.4077758789062	-489.841552734375	-541.0020141601562	516.6067504882812	-480.8472290039062	-683.408203125	153.8598480224609	-203.7273406982422	-673.4301147460938	378.7967224121094	-473.384765625	-618.9187622070312	520.4871215820312	-465.4055786132812	-381.7563171386719	666.2008666992188	-192.1291046142578	-624.1943969726562	64.19415283203125	-406.2156066894531	-455.2855224609375	639.1632080078125	-180.0444030761719	-345.6390991210938	574.2725219726562	-214.8253936767578	-422.6702575683594	543.8289794921875	-196.4077453613281	-587.988525390625	445.7759399414062	-470.4549560546875	-382.3517456054688	492.2523193359375	-199.7382965087891	-604.0306396484375	334.6805114746094	-463.3335571289062	-662.987548828125	253.6365814208984	-443.6355285644531	-450.1923522949219	400.2258605957031	-204.9955749511719	-697.4003295898438	61.77983856201172	-465.0745239257812	-502.0277709960938	468.64990234375	-203.471923828125	-859.6907348632812	94.44192504882812	-336.6786499023438	-536.6359252929688	344.4277954101562	-220.010009765625	-578.2417602539062	411.7220153808594	-216.9332580566406	-799.8659057617188	138.94580078125	-424.5293273925781	-701.494873046875	289.6326904296875	-237.6595458984375	-630.0845336914062	91.9052505493164	-262.1130676269531	-753.6475830078125	321.5802612304688	-292.3346252441406	-773.19091796875	290.5513305664062	-321.80517578125	-777.0484619140625	306.361328125	-267.7579040527344	-871.7029418945312	96.04212951660156	-390.8201904296875
123	0.61	-414.9930114746094	1393.951538085938	-547.911865234375	-431.7951354980469	1410.3134765625	-241.2021331787109	-501.7471923828125	961.5654907226562	-507.1831665039062	-461.6769104003906	961.8491821289062	-229.0238800048828	-457.1612243652344	912.2555541992188	-487.421142578125	-862.6646728515625	131.6788482666016	-357.9461364746094	-439.4695434570312	918.3297729492188	-250.9755706787109	-596.856201171875	848.6771240234375	-514.7257080078125	-568.2977294921875	840.435546875	-187.8160858154297	-627.0206909179688	954.8897705078124	-391.3880615234375	-538.0103759765625	615.8628540039062	-508.5751037597656	-725.7723388671875	304.8270568847656	-451.3046264648438	-612.5067138671875	621.36865234375	-489.4629211425781	-533.6104736328125	519.67822265625	-480.2766418457031	-649.4398803710938	149.6774291992188	-202.7419738769531	-670.7576293945312	383.4049682617188	-473.1775207519531	-611.5397338867188	525.8973999023438	-465.2672119140625	-362.849365234375	672.242431640625	-192.8321685791016	-623.7079467773438	63.72903060913086	-406.2315979003906	-435.8122863769531	644.3280029296875	-180.2632904052734	-325.5044860839844	581.3394775390625	-215.7057037353516	-401.8629455566406	549.490966796875	-197.1271667480469	-583.0892944335938	450.1522827148438	-470.1858520507812	-361.0479431152344	497.9073181152344	-200.7853851318359	-600.5245361328125	338.6238403320312	-463.386962890625	-660.1790161132812	257.9010925292969	-443.7303466796875	-427.2236328125	403.7238464355469	-205.1650543212891	-696.4266967773438	62.21720123291016	-464.9953918457031	-480.9732666015625	470.4097900390625	-204.9429931640625	-857.9086303710938	100.8600540161133	-337.5451965332031	-511.2878112792969	345.0059204101562	-219.9283905029297	-555.2777099609375	410.6056213378906	-218.0013732910156	-796.6212768554688	143.3577117919922	-425.3604431152344	-673.3364868164062	284.3328247070312	-238.3087615966797	-592.7031860351562	89.66075897216797	-260.1334228515625	-727.0182495117188	312.8651123046875	-293.4981079101562	-744.4998168945312	280.0029296875	-322.4587097167969	-750.1932983398438	296.2499389648438	-269.0915222167969	-868.9308471679688	101.7248229980469	-391.9729614257812
